<svg xmlns="http://www.w3.org/2000/svg" xmlns:xlink="http://www.w3.org/1999/xlink" width="17.093" height="16.301" version="1.1" x="0px" y="0px" viewBox="0 0 100 125" enable-background="new 0 0 100 100" xml:space="preserve"><g><g><path d="M47.235,37.446h-17.45v15.32v2.128v15.32h15.322h2.128h15.32V52.766h-15.32C47.235,52.766,47.235,37.446,47.235,37.446z     M45.107,68.087H31.913V54.894h13.194C45.107,54.894,45.107,68.087,45.107,68.087z M60.427,54.894v13.193H47.235V54.894H60.427z     M31.913,52.766V39.574h13.194v13.192C45.107,52.766,31.913,52.766,31.913,52.766z"/><path d="M52.767,29.785v17.448h17.448V29.785H52.767z M68.087,45.106H54.894V31.913h13.192L68.087,45.106L68.087,45.106z"/></svg>